<?xml version="1.0" encoding="UTF-8"?> <svg xmlns="http://www.w3.org/2000/svg" width="4183" height="1407" viewBox="0 0 4183 1407" fill="none"> <path d="M31.0017 898.054C381.249 745.674 1243.4 1151.7 1491.5 1153.5C1798.85 1155.73 1828.5 782.285 2027.45 790.588C2283.36 801.268 2261.26 1214.9 2774.5 898.055L3938 299.5" stroke="#946B56" stroke-width="2"></path> <path d="M50.502 845.718C400.75 693.338 1252.99 1107.81 1485 1109.5C1792.35 1111.73 1816.76 729.948 2015.71 738.251C2271.62 748.931 2249.52 1162.56 2762.76 845.718L3914.5 253" stroke="#946B56" stroke-width="6"></path> <path d="M60.5018 799.016C410.749 646.637 1230 1063.31 1462 1065C1769.35 1067.23 1812.24 683.247 2011.19 691.55C2267.1 702.23 2245 1115.86 2758.24 799.017L3858 198.999" stroke="#946B56" stroke-width="2"></path> <path d="M94.0011 745.588C444.249 593.208 1221.99 1017.81 1454 1019.5C1761.35 1021.73 1809.53 629.818 2008.48 638.12C2264.39 648.8 2242.3 1062.43 2755.53 745.587L3796 163" stroke="#946B56" stroke-width="2"></path> <path d="M17.5007 989C367.748 836.62 1245.19 1290.02 1514.5 1263C1818.56 1232.49 1848.07 897.238 2047.02 905.54C2302.94 916.22 2280.84 1329.85 2794.07 1013.01L4082.5 359" stroke="#946B56" stroke-width="2"></path> <path d="M0.999211 1012.5C498.001 944 1291.39 1347.51 1547 1310.5C1848.66 1266.83 1853.94 959.358 2052.89 967.66C2308.8 978.34 2250.37 1365.75 2799.94 1075.13C3349.5 784.501 4089.51 418.501 4089.51 418.501" stroke="#946B56" stroke-width="6"></path> <path d="M117.002 684.223C467.25 531.843 1218 975.314 1450 977C1757.35 979.234 1799.15 568.453 1998.1 576.756C2254.01 587.436 2231.92 1001.06 2745.15 684.223L3780.5 116.499" stroke="#946B56" stroke-width="2"></path> <path d="M24.0001 951.642C374.248 799.262 1262.5 1205.81 1494.5 1207.5C1801.85 1209.73 1837.71 835.873 2036.66 844.175C2292.57 854.855 2270.47 1268.48 2783.71 951.642L4031 317.5" stroke="#946B56" stroke-width="2"></path> <path d="M50.5017 620.263C400.749 467.883 1216.5 921.814 1448.5 923.5C1755.85 925.733 1795.59 504.493 1994.54 512.796C2250.45 523.476 2228.36 937.104 2741.59 620.262L3742 72.4996" stroke="#946B56" stroke-width="6"></path> </svg> 