<?xml version="1.0" encoding="UTF-8"?> <svg xmlns="http://www.w3.org/2000/svg" width="1235" height="1032" viewBox="0 0 1235 1032" fill="none"> <g clip-path="url(#clip0_941_2944)"> <path d="M1027.91 -91.934C999.929 388.555 584.355 260.156 479.884 417.754C350.469 612.98 700.501 928.905 612.5 1053" stroke="#A69B91" stroke-width="6"></path> <path d="M1068.97 -84.4734C1017.99 408.509 614.736 280.274 517.041 427.647C387.624 622.872 730.608 933.044 648.501 1060" stroke="#A69B91" stroke-width="2"></path> <path d="M1117.51 -84.5012C1059.03 415.981 645.404 292.907 547.709 440.28C418.292 635.505 771.001 943.904 683 1068" stroke="#A69B91" stroke-width="2"></path> <path d="M1163.51 -74.0006C1086.5 437.001 679.465 308.921 581.77 456.293C452.353 651.519 814.001 968.002 727.5 1065" stroke="#A69B91" stroke-width="2"></path> <path d="M1199 -53.4983C1094.5 470.065 721.603 322.693 623.908 470.065C494.491 665.291 845.319 937.869 762.5 1064.5" stroke="#A69B91" stroke-width="2"></path> <path d="M1232 -22.998C1120 489.032 762.508 341.66 664.813 489.032C535.396 684.258 864.5 924.502 803.001 1065" stroke="#A69B91" stroke-width="6"></path> </g> <defs> <clipPath id="clip0_941_2944"> <rect width="1235" height="1032" fill="white"></rect> </clipPath> </defs> </svg> 