<?xml version="1.0" encoding="UTF-8"?> <svg xmlns="http://www.w3.org/2000/svg" width="3965" height="1578" viewBox="0 0 3965 1578" fill="none"> <path d="M3756.99 579.016L2678.48 546.28C2368.6 542.362 2474.57 793.225 2364.01 865.781C2278.06 922.187 2152.28 711.971 2014.26 793.828C1916.48 851.816 1956 1074.79 1744.5 1102.5C1533 1130.21 245.999 658 245.999 658" stroke="#474747" stroke-width="2"></path> <path d="M3769.45 593.835C3769.45 593.835 3001.35 571.199 2691.48 567.28C2381.6 563.362 2483.01 819.457 2372.45 892.013C2286.5 948.419 2171.53 741.187 2030.23 816.931C1923.54 874.118 1969.5 1103.72 1757.5 1131.5C1545.5 1159.28 272.999 697.5 272.999 697.5" stroke="#474747" stroke-width="6"></path> <path d="M3767.9 605.688C3767.9 605.688 3019.85 590.699 2709.98 586.78C2400.1 582.862 2493.16 841.273 2382.6 913.829C2296.65 970.236 2171.15 760.19 2032.95 850.241C1932.44 915.734 1973.83 1134.47 1779 1160C1584.17 1185.53 270.999 732 270.999 732" stroke="#474747" stroke-width="2"></path> <path d="M3758.29 622.626C3758.29 622.626 3022.35 614.699 2712.48 610.78C2402.6 606.862 2505.88 865.594 2395.32 938.15C2309.37 994.556 2181.22 792.104 2045.67 874.562C1943.36 936.808 1984.83 1165.47 1790 1191C1595.17 1216.53 215.499 741 215.499 741" stroke="#474747" stroke-width="2"></path> <path d="M3731.75 546.668L2662.98 504.28C2353.1 500.362 2444.73 742.351 2342.73 809.808C2257.85 865.948 2136.68 657.338 1990.98 745.98C1888.66 808.226 1939.02 1028.57 1714.5 1059.5C1489.98 1090.43 331.999 612.5 331.999 612.5" stroke="#474747" stroke-width="2"></path> <path d="M3731.85 524.643L2650.98 484.78C2350.63 475.901 2414.16 722.399 2331.16 783.777C2248.26 845.07 2134.88 630.234 1989.65 713.53C1860.93 787.361 1919.87 1038.68 1664.98 1037.78C1410.08 1036.88 329.499 583 329.499 583" stroke="#474747" stroke-width="6"></path> <path d="M3749.29 644.309C3749.29 644.309 3040.85 631.699 2730.98 627.78C2421.1 623.862 2517.28 895.453 2406.72 968.009C2320.76 1024.41 2192.61 821.962 2057.07 904.42C1954.75 966.667 1995.33 1203.47 1800.5 1229C1605.67 1254.53 218 772 218 772" stroke="#474747" stroke-width="2"></path> <path d="M3756.09 563.364L2669.48 525.28C2359.6 521.362 2464.69 767.112 2354.13 839.668C2268.17 896.074 2140.31 679.222 1999.94 773.947C1900.42 841.109 1955.5 1042 1730 1078C1504.5 1114 340.999 646 340.999 646" stroke="#474747" stroke-width="2"></path> <path d="M3755.79 668.345C3755.79 668.345 3056.85 648.699 2746.98 644.78C2437.1 640.862 2532.37 924.652 2421.81 997.208C2335.85 1053.61 2207.7 851.161 2072.16 933.62C1969.84 995.866 2010.33 1232.97 1815.5 1258.5C1620.67 1284.03 241 818 241 818" stroke="#474747" stroke-width="6"></path> </svg> 