<?xml version="1.0" encoding="UTF-8"?> <svg xmlns="http://www.w3.org/2000/svg" width="1440" height="1063" viewBox="0 0 1440 1063" fill="none"> <g clip-path="url(#clip0_951_2952)"> <path d="M2336.2 905.559C1935.78 588.201 1647.98 1182.6 1353.97 1109.53C964.499 1012.72 1076.97 383.855 822.932 330.355C496.16 261.536 408.176 821.477 -152.35 231.416C-239.263 139.924 -88.9957 435.883 -56.2402 499.611" stroke="#8C6529" stroke-width="6"></path> <path d="M2361.3 845.344C1960.88 527.986 1673.08 1122.39 1379.07 1049.31C989.598 952.508 1102.07 323.64 848.032 270.14C521.26 201.321 433.275 761.262 -127.251 171.201C-214.163 79.7091 -63.8961 375.668 -31.1406 439.396" stroke="#8C6529" stroke-width="2"></path> <path d="M2380.09 784.399C1979.68 467.041 1691.87 1061.44 1397.87 988.368C1008.39 891.563 1120.86 262.695 866.825 209.195C540.053 140.376 452.068 700.317 -108.458 110.256C-195.37 18.7637 -45.1031 314.723 -12.3477 378.451" stroke="#8C6529" stroke-width="2"></path> <path d="M2398.51 713.889C1998.09 396.53 1710.29 990.934 1416.28 917.857C1026.81 821.052 1139.28 192.185 885.241 138.684C558.469 69.8657 470.484 629.806 -90.0423 39.7453" stroke="#8C6529" stroke-width="2"></path> <path d="M2436.47 630.498C2036.05 313.14 1748.25 907.544 1454.24 834.467C1064.76 737.662 1177.24 108.794 923.198 55.2937C596.426 -13.5247 508.441 546.416 -52.0847 -43.645C-138.997 -135.137 -239.211 161.026 -206.456 224.755" stroke="#8C6529" stroke-width="6"></path> </g> <defs> <clipPath id="clip0_951_2952"> <rect width="1440" height="1063" fill="white"></rect> </clipPath> </defs> </svg> 