<?xml version="1.0" encoding="UTF-8"?> <svg xmlns="http://www.w3.org/2000/svg" width="1440" height="1756" viewBox="0 0 1440 1756" fill="none"> <path d="M-128.409 1471.9C506.361 1381.09 81.7121 1116.16 273.228 928.456C548.46 658.698 1095.02 1064.25 1517.6 778.742C1934.86 496.831 1748.82 -279.543 1717.98 -264.453" stroke="black" stroke-width="5"></path> <path d="M-95.1096 1508.92C563.709 1443.43 163 1141.19 310.988 967.748C528.625 712.678 1145.22 1111.97 1567.8 826.458C1985.06 544.547 1799.02 -231.827 1768.18 -216.736" stroke="black" stroke-width="2"></path> <path d="M-49.7443 1555.85C609.074 1490.36 208.365 1188.12 356.353 1014.68C573.99 759.607 1190.59 1158.89 1613.17 873.388C2030.42 591.477 1844.38 -184.898 1813.54 -169.807" stroke="black" stroke-width="2"></path> <path d="M-0.687681 1612.33C658.13 1546.84 257.422 1244.6 405.409 1071.15C623.047 816.084 1239.64 1215.37 1662.22 929.864C2079.48 647.954 1893.44 -128.421 1862.6 -113.33" stroke="black" stroke-width="2"></path> <path d="M-5.70378 1669.35C745.956 1592.28 305.002 1304.67 452.989 1131.23C670.627 876.158 1287.22 1275.45 1709.8 989.939C2127.06 708.028 1941.02 -68.3468 1910.18 -53.2558" stroke="black" stroke-width="5"></path> </svg> 