<?xml version="1.0" encoding="UTF-8"?> <svg xmlns="http://www.w3.org/2000/svg" width="1936" height="2175" viewBox="0 0 1936 2175" fill="none"> <g clip-path="url(#clip0_958_2953)"> <path d="M2156.5 2473.32C1690.5 1442.38 446.84 1465.72 505.49 940.535C575.973 309.39 1971.77 948.077 1942.5 370.126C1922.91 -16.6808 2045.97 -147.546 2044 -109.055" stroke="#93827A" stroke-width="8"></path> <path d="M1891.5 2195.97C1412.5 1430.58 383.532 1478.07 446.268 916.29C521.662 241.172 1948.31 947.626 1917 329.407C1896.04 -84.3487 1769.73 -298.623 1767.62 -257.45" stroke="#93827A" stroke-width="4"></path> <path d="M1830 2264.42C1536 1584.01 196.299 1478.25 264.619 866.471C346.723 131.267 1903.6 920.031 1869.5 246.79C1846.68 -203.79 1751.74 -436.43 1749.44 -391.593" stroke="#93827A" stroke-width="4"></path> <path d="M1807 2295.7C1498 1621.19 98.8852 1462.39 168.581 838.295C252.338 88.2873 1899.73 895.737 1847.5 216.696C1815.5 -199.343 1685.65 -490.84 1683.3 -445.1" stroke="#93827A" stroke-width="4"></path> <path d="M1847.5 2209.55C1472.5 1513.2 293.22 1483.71 359.142 893.402C438.364 184.004 1924.4 941.251 1891.5 291.641C1869.48 -143.124 1796.52 -370.072 1794.3 -326.809" stroke="#93827A" stroke-width="4"></path> </g> <defs> <clipPath id="clip0_958_2953"> <rect width="1936" height="2175" fill="white"></rect> </clipPath> </defs> </svg> 