<?xml version="1.0" encoding="UTF-8"?> <svg xmlns="http://www.w3.org/2000/svg" width="4220" height="2004" viewBox="0 0 4220 2004" fill="none"> <g clip-path="url(#clip0_1196_2957)"> <path d="M4321 1557C4321 1557 3449 1869 2823.5 1655C2198 1441 2555.22 1124.84 2404.27 918.523C2286.92 758.132 1929.72 1040.84 1722.33 811.628C1505.5 571.995 1262 955.495 668 758.496C74.0004 561.496 11.5021 -151.504 11.5021 -151.504" stroke="#AAB9C2" stroke-width="2"></path> <path d="M4220 1551C4220 1551 3380.02 1830.12 2816.4 1627.1C2252.78 1424.08 2588.29 1083.07 2437.33 876.759C2319.98 716.368 1965.29 1000.21 1754.52 773.763C1529.5 531.996 1269 913.996 705 730.496C141 546.996 72.503 -32.0025 72.503 -32.0025" stroke="#AAB9C2" stroke-width="6"></path> <path d="M4246 1503.5C4246 1503.5 3413.25 1808.59 2849.64 1605.57C2286.02 1402.55 2621.49 1050.45 2470.54 844.134C2353.19 683.743 1978.4 978.694 1784.5 725.995C1585 465.995 1220.5 904.996 663 669.996C105.5 434.996 84.5017 -145.003 84.5017 -145.003" stroke="#AAB9C2" stroke-width="2"></path> <path d="M4340 1437.5C4340 1437.5 3439.42 1789.36 2875.8 1586.35C2312.18 1383.33 2661.01 1015.05 2510.06 808.735C2392.71 648.344 1993.5 931.496 1806.5 670.496C1644.94 444.996 1171.5 852.997 649.502 614.997C127.502 376.996 44.0008 -342.504 44.0008 -342.504" stroke="#AAB9C2" stroke-width="2"></path> <path d="M4253 1671.76C4253 1671.76 3260.07 1927.48 2694.53 1671.75C2129 1416.03 2469 1175.5 2327.8 1005.42C2202.6 854.616 1851.41 1141.73 1647.75 882.464C1504.73 700.405 1202.5 1015 693.002 859.496C183.502 703.996 7.50209 184.996 7.50209 184.996" stroke="#AAB9C2" stroke-width="2"></path> <path d="M4276 1712C4276 1712 3214.68 1948.06 2665.34 1698.49C2116 1448.91 2397.84 1212.1 2289.19 1044.7C2180.69 877.538 1819.1 1199.07 1623.35 940.314C1475.77 745.238 1220.33 1059.78 704.002 910.498C187.675 761.211 15.4996 293.5 15.4996 293.5" stroke="#AAB9C2" stroke-width="6"></path> <path d="M4506 1341.5C4506 1341.5 3468.99 1775.41 2905.37 1572.39C2341.75 1369.38 2701.89 968.721 2550.93 762.409C2433.58 602.018 2025.64 895.044 1848.5 635.494C1692.06 406.278 1148.5 804.995 667.499 576.495C186.499 347.995 53.0025 -279.003 53.0025 -279.003" stroke="#AAB9C2" stroke-width="2"></path> <path d="M4305.5 1609C4305.5 1609 3291.2 1907.22 2735.1 1657.11C2179 1407 2519.63 1165.41 2368.68 959.097C2251.32 798.706 1872.82 1104.57 1682.94 837.917C1548.31 648.853 1274 946.497 737 825.497C200 704.497 16.5008 86.4977 16.5008 86.4977" stroke="#AAB9C2" stroke-width="2"></path> <path d="M4549.5 1271C4549.5 1271 3512.84 1756.15 2949.22 1553.14C2385.6 1350.12 2749 926.093 2598.05 719.78C2480.7 559.39 2069 839.497 1889.5 601.497C1696.8 345.997 1160 782.496 682.998 533.996C205.998 285.496 183.998 -43.5037 183.998 -43.5037" stroke="#AAB9C2" stroke-width="6"></path> </g> <defs> <clipPath id="clip0_1196_2957"> <rect width="4220" height="2004" fill="white"></rect> </clipPath> </defs> </svg> 