<?xml version="1.0" encoding="UTF-8"?> <svg xmlns="http://www.w3.org/2000/svg" width="7580" height="2455" viewBox="0 0 7580 2455" fill="none"> <path d="M7545.34 560.732L4364.86 387.733C3457.84 324.146 3752.85 972.537 3416.79 1166.48C3155.53 1317.25 2822.46 680.33 2404.38 896.896C2087.17 1061.21 2255.86 1807.24 1680.86 1849.26C1105.86 1891.28 133.998 1556.5 133.998 1556.5" stroke="black" stroke-width="2"></path> <path d="M7579.34 606.232C7579.34 606.232 5330.39 498.819 4423.36 435.232C3516.33 371.646 3773.15 1050.79 3437.09 1244.73C3175.83 1395.51 2873.93 769.147 2447.29 967.252C2125.17 1116.82 2276.17 1885.5 1701.17 1927.52C1126.17 1969.53 91.9979 1626.5 91.9979 1626.5" stroke="black" stroke-width="6"></path> <path d="M7572.85 640.732C7572.85 640.732 5363.34 549.085 4456.31 485.498C3549.29 421.911 3799.26 1116.45 3463.21 1310.39C3201.95 1461.16 2869.67 824.788 2449.71 1065.33C2144.28 1240.27 2296 1966.48 1721 2008.5C1146 2050.52 109.501 1700 109.501 1700" stroke="black" stroke-width="2"></path> <path d="M7541.85 688.732C7541.85 688.732 5387.89 591.819 4480.86 528.232C3573.83 464.645 3832.44 1189.83 3496.38 1383.77C3235.12 1534.54 2893.78 919.962 2482.88 1138.71C2172.7 1303.83 2324 2043.48 1749 2085.5C1174 2127.52 98.998 1752.5 98.998 1752.5" stroke="black" stroke-width="2"></path> <path d="M7476.84 461.732L4281.52 298.525C3374.49 234.938 3673.97 818.496 3363.87 998.941C3105.79 1149.11 2785.95 517.676 2344.24 752.823C2034.06 917.949 2179.17 1689.61 1592.66 1712.93C1006.14 1736.25 158.498 1444 158.498 1444" stroke="black" stroke-width="2"></path> <path d="M7480.84 397.232L4257.38 243.519C3379.1 167.002 3587.81 754.912 3334.34 920.742C3081.23 1086.34 2785.22 437.977 2345.83 657.547C1956.36 852.168 2187 1689.5 1440.5 1644C694.002 1598.5 172.501 1353 172.501 1353" stroke="black" stroke-width="6"></path> <path d="M7511.85 750.732C7511.85 750.732 5420.39 629.319 4513.36 565.732C3606.34 502.145 3860.8 1279.2 3524.74 1473.14C3263.48 1623.92 2922.14 1009.34 2511.25 1228.08C2201.07 1393.21 2363.82 2113.91 1788.82 2155.93C1213.82 2197.94 85 1829.5 85 1829.5" stroke="black" stroke-width="2"></path> <path d="M7545.34 514.732L4328.86 343.733C3421.84 280.146 3728.29 894.382 3392.23 1088.32C3130.97 1239.09 2792.9 582.388 2365.8 836.251C2062.97 1016.25 2231.3 1729.09 1656.3 1771.11C1081.31 1813.12 147.998 1504 147.998 1504" stroke="black" stroke-width="2"></path> <path d="M7526.85 822.231C7526.85 822.231 5469.47 682.927 4562.44 619.34C3655.41 555.753 3900.09 1367.27 3564.03 1561.21C3302.77 1711.98 2961.43 1097.41 2550.53 1316.15C2240.35 1481.28 2403.11 2201.98 1828.11 2243.99C1253.11 2286.01 55.5017 1920 55.5017 1920" stroke="black" stroke-width="6"></path> </svg> 