<?xml version="1.0" encoding="UTF-8"?> <svg xmlns="http://www.w3.org/2000/svg" width="3859" height="1986" viewBox="0 0 3859 1986" fill="none"> <path d="M3682.5 285.498C3611.72 567.771 2418.96 130.702 2250.96 640.186C2184.62 841.357 2387.5 1024.24 2288.4 1148.18C2160.93 1307.6 691.963 850.213 646.314 1299.74C600.664 1749.27 137.998 1526.5 137.998 1526.5" stroke="#AAB9C2" stroke-width="6"></path> <path d="M3696.17 309.781C3625.38 592.054 2452.19 151.046 2283.66 653.048C2216.18 854.055 2414.24 1033.76 2321.1 1161.04C2165.62 1373.51 739.472 866.017 680.991 1328C622.511 1789.99 144.992 1552.5 144.992 1552.5" stroke="#AAB9C2" stroke-width="2"></path> <path d="M3725.52 330.99C3654.73 613.263 2489 168.71 2320.13 667.794C2252.15 868.727 2456.67 1051.85 2357.58 1175.79C2166.17 1415.18 787.195 890.504 715.989 1347C644.783 1803.5 155.488 1579.5 155.488 1579.5" stroke="#AAB9C2" stroke-width="2"></path> <path d="M3747.01 355.495C3676.22 637.768 2523.69 192.472 2354.58 686.57C2285.85 887.391 2497.36 1074.6 2392.03 1194.56C2164.71 1453.45 823.983 901.004 742.485 1389C660.987 1877 0.986379 1561 0.986379 1561" stroke="#AAB9C2" stroke-width="2"></path> <path d="M3769 382.497C3698.22 664.769 2567.09 217.514 2397.57 703.488C2327.58 904.115 2528.87 1084.59 2435.01 1211.48C2224.09 1496.64 868.457 937.005 781.489 1386.01C694.521 1835.01 188.986 1656 188.986 1656" stroke="#AAB9C2" stroke-width="6"></path> <path d="M3806.5 444.497C3735.72 726.77 2645.68 271.117 2470.2 742.322C2397.01 938.838 2608.68 1100.45 2496.58 1243.79C2226.62 1588.98 964.99 991.004 845.989 1443C726.987 1895 164.991 1704.5 164.991 1704.5" stroke="#AAB9C2" stroke-width="2"></path> <path d="M3833.5 469.001C3762.72 751.274 2679.47 301.412 2512.56 768.52C2445.02 957.553 2639.14 1098.79 2539.53 1249.41C2281.55 1639.5 1005.99 1011 874.991 1481.5C743.99 1952 131.492 1712 131.492 1712" stroke="#AAB9C2" stroke-width="2"></path> <path d="M3855 496.003C3784.21 778.275 2720.89 325.87 2553.66 785.36C2484.93 974.194 2687.12 1091.78 2580.63 1266.25C2314.36 1702.47 1071.99 1038.5 918.992 1495C765.991 1951.5 255.992 1781.5 255.992 1781.5" stroke="#AAB9C2" stroke-width="6"></path> <path d="M3793.01 414.993C3722.22 697.266 2614.38 247.521 2438.95 725.751C2366.62 922.922 2559.15 1101.52 2465.33 1228.44C2239.41 1534.06 904.487 966.005 818.488 1413C732.489 1860 175.988 1683.5 175.988 1683.5" stroke="#AAB9C2" stroke-width="2"></path> </svg> 