<?xml version="1.0" encoding="UTF-8"?> <svg xmlns="http://www.w3.org/2000/svg" width="2858" height="1094" viewBox="0 0 2858 1094" fill="none"> <path d="M120.755 572.408C530.715 630.063 1389.37 948.033 1608.47 699.598C1781.15 503.789 1282.03 258.491 2620.95 55.7221" stroke="#456994" stroke-width="3"></path> <path d="M121.217 636.124C531.176 693.779 1534.36 1105.9 1753.45 857.465C1926.13 661.655 1362.48 282.212 2631.19 113.393" stroke="#456994" stroke-width="3"></path> <path d="M116.566 663.563C526.526 721.217 1641.18 1205.53 1860.27 957.095C2032.96 761.286 1376.9 291.515 2640.95 144.089" stroke="#456994" stroke-width="6"></path> <path d="M126.333 535.203C536.292 592.858 1341.4 904.498 1560.49 656.064C1733.17 460.254 1237.38 207.799 2624.21 29.6785" stroke="#456994" stroke-width="6"></path> <path d="M120.753 604.034C530.713 661.689 1448.15 1028.13 1667.24 779.699C1839.92 583.889 1349.92 254.777 2624.21 81.7719" stroke="#456994" stroke-width="3"></path> </svg> 