<?xml version="1.0" encoding="UTF-8"?> <svg xmlns="http://www.w3.org/2000/svg" width="2240" height="1581" viewBox="0 0 2240 1581" fill="none"> <path d="M2092.6 1135.92C1797.89 1262.56 1933.13 973.951 1813.73 911.8C1642.15 822.481 1396.8 1274.71 1156.5 1224C777 1143.92 285.152 2.47258 301.5 3.00559" stroke="black" stroke-width="5"></path> <path d="M2085.09 1168.73C1784.68 1318.17 1902.36 1013.12 1804.7 947.318C1661.08 850.545 1409.83 1309.77 1166.5 1276.52C701.5 1212.98 256.652 29.9716 273 30.5046" stroke="black" stroke-width="2"></path> <path d="M2074.18 1211.2C1773.77 1360.65 1891.45 1055.6 1793.79 989.797C1650.17 893.024 1412.39 1362.89 1169 1330.04C605.499 1254 231.151 55.0019 247.499 55.5349" stroke="black" stroke-width="2"></path> <path d="M2063.48 1260.74C1763.07 1410.19 1880.75 1105.14 1783.09 1039.34C1639.47 942.562 1418.85 1420.2 1164 1376.04C996.502 1347.01 858.736 1233.43 831 1209.54C369.5 812.032 216 84.0193 209.5 56.519" stroke="black" stroke-width="2"></path> <path d="M2076.51 1294.99C1733.32 1464.02 1871.37 1156.49 1773.71 1090.69C1630.09 993.918 1448.46 1429.35 1188.01 1412.56C960.467 1397.9 761.755 1230.13 587.501 1029.06C326.898 728.357 168.961 73.2358 179.003 73.5632" stroke="black" stroke-width="5"></path> </svg> 