<?xml version="1.0" encoding="UTF-8"?> <svg xmlns="http://www.w3.org/2000/svg" width="224" height="216" viewBox="0 0 224 216" fill="none"> <path d="M64.4622 5.26829C84.6222 11.8537 101.547 32.0488 104.782 65.8537H106.276L108.764 18.2195C100.551 9.65854 84.3733 0 59.9822 0C20.9067 0 0 31.1707 0 63C0 104.049 16.4267 143.561 43.5556 170.561H50.5244C80.64 170.561 110.258 144.878 114.489 103.39H112.996C103.787 146.415 76.6578 153.22 60.2311 154.976C39.5733 129.951 27.6267 97.9024 27.6267 69.8049C27.6267 35.122 38.5778 16.9024 64.4622 5.26829ZM180.196 160.683L167.751 166.829V168.146H221.262V166.829L208.818 160.683V10.0976L224 2.63415V1.31707H128.427V2.63415L144.107 10.0976C143.858 56.1951 143.111 90.8781 140.373 117C133.902 176.049 120.711 190.317 107.022 190.317C96.8178 190.317 88.1067 183.073 79.6444 174.732L78.1511 176.049L114.987 216C122.453 209.415 132.658 195.585 138.88 175.61C147.342 147.951 150.578 102.073 152.569 6.36585H180.196V160.683Z" fill="white" fill-opacity="0.5"></path> </svg> 