<?xml version="1.0" encoding="UTF-8"?> <svg xmlns="http://www.w3.org/2000/svg" width="920" height="927" viewBox="0 0 920 927" fill="none"> <path d="M499.509 847.487C447.574 749.402 1024.36 751.868 748.456 556.518C567.969 428.725 863.187 275.504 774.504 205.037C709.487 153.375 655.332 306.782 595.698 287.215C514.056 260.426 617.792 71.757 517.788 59.41C404.236 45.3901 369.268 274.454 305.035 267.738C240.801 261.023 134.077 166.951 80.2837 200.402C11.1539 243.391 71.4728 361.14 54.7733 402.323L73.2615 432.054" stroke="white" stroke-width="5"></path> <path d="M481.533 824.686C518.148 690.106 968.651 743.54 716.31 563.288C530.997 430.914 826.025 280.671 758.351 226.893C722.345 198.279 647.303 328.527 587.79 310.287C485.691 278.993 598.787 93.8338 510.645 82.9512C410.56 70.5942 368.968 320.777 312.353 314.858C255.738 308.939 144.124 200.372 96.7117 229.855C35.7811 267.745 106.492 397.182 91.7734 433.48L108.069 459.685" stroke="white" stroke-width="2"></path> </svg> 