<?xml version="1.0" encoding="UTF-8"?> <svg xmlns="http://www.w3.org/2000/svg" width="7593" height="3593" viewBox="0 0 7593 3593" fill="none"> <path d="M5142.02 1229.63L3271.85 1964.2C2741.33 2182.23 2789.35 1735.44 2549.63 1685.98C2363.28 1647.52 2290.19 2094.99 1996.88 2048.26C1774.33 2012.79 1727.34 1532.6 1374.69 1621.51C1022.04 1710.43 506.496 2103.7 506.496 2103.7" stroke="black" stroke-width="2"></path> <path d="M5153.36 1195.64C5153.36 1195.64 3827.98 1706.13 3297.46 1924.15C2766.94 2142.18 2785.99 1684.55 2546.28 1635.09C2359.92 1596.63 2303.4 2031.6 2008.62 1997.61C1786.06 1971.95 1723.98 1481.71 1371.34 1570.62C1018.69 1659.54 467.47 2070.12 467.47 2070.12" stroke="black" stroke-width="6"></path> <path d="M5142.63 1176.27C5142.63 1176.27 3837.74 1669.5 3307.22 1887.52C2776.7 2105.54 2788.6 1640.06 2548.89 1590.59C2362.54 1552.14 2289.81 1999.13 1990.62 1938.41C1773.02 1894.25 1719.79 1429.28 1367.14 1518.2C1014.49 1607.11 463.369 2022.64 463.369 2022.64" stroke="black" stroke-width="2"></path> <path d="M5114.54 1153.68C5114.54 1153.68 3843.96 1639.04 3313.44 1857.06C2782.92 2075.08 2793.91 1589.53 2554.2 1540.07C2367.84 1501.62 2285.37 1937.35 1995.92 1887.89C1777.43 1850.55 1721.28 1377.62 1368.63 1466.54C1015.98 1555.45 446.663 1993.29 446.663 1993.29" stroke="black" stroke-width="2"></path> <path d="M5120.65 1302.5L3239.65 2034.16C2709.13 2252.18 2772.68 1843.33 2551.19 1796.8C2366.86 1758.07 2300.61 2199.63 1989.46 2146.46C1770.96 2109.12 1704.77 1618.25 1348.93 1720.65C993.09 1823.04 543.496 2166.21 543.496 2166.21" stroke="black" stroke-width="2"></path> <path d="M5135.85 1340.33L3236.11 2071.88C2725.37 2291.95 2733.71 1898.49 2549.03 1849.48C2364.61 1800.53 2315.99 2247.5 2009.32 2203.2C1737.49 2163.92 1709.48 1616.76 1271.5 1792.11C833.515 1967.45 569.942 2217.92 569.942 2217.92" stroke="black" stroke-width="6"></path> <path d="M5084.27 1122.5C5084.27 1122.5 3855.98 1610.13 3325.45 1828.15C2794.93 2046.18 2793.15 1530.38 2553.44 1480.92C2367.08 1442.47 2284.61 1878.2 1995.16 1828.74C1776.67 1791.4 1731.14 1327.55 1378.49 1416.46C1025.84 1505.37 422.993 1949.95 422.993 1949.95" stroke="black" stroke-width="2"></path> <path d="M5151.16 1257.18L3259.03 1997.69C2728.51 2215.72 2790.15 1787.11 2550.44 1737.65C2364.09 1699.2 2291.93 2159.51 1985.82 2092.23C1768.78 2044.52 1728.15 1584.27 1375.5 1673.18C1022.85 1762.1 525.306 2132.36 525.306 2132.36" stroke="black" stroke-width="2"></path> <path d="M5079.08 1076.72C5079.08 1076.72 3874.74 1568.3 3344.22 1786.33C2813.7 2004.35 2799.21 1469.86 2559.5 1420.4C2373.15 1381.95 2290.68 1817.68 2001.23 1768.22C1782.73 1730.87 1737.21 1267.02 1384.56 1355.94C1031.91 1444.85 387.388 1901.62 387.388 1901.62" stroke="black" stroke-width="6"></path> </svg> 