<?xml version="1.0" encoding="UTF-8"?> <svg xmlns="http://www.w3.org/2000/svg" width="2859" height="1343" viewBox="0 0 2859 1343" fill="none"> <path d="M22.313 589.603C463.067 651.588 1386.22 993.442 1621.77 726.347C1807.43 515.828 1270.81 252.106 2710.31 34.1056" stroke="#050505" stroke-width="3"></path> <path d="M22.8105 658.103C463.564 720.088 1542.1 1163.17 1777.64 896.07C1963.3 685.552 1357.32 277.607 2721.32 96.1069" stroke="#050505" stroke-width="3"></path> <path d="M17.8111 687.603C458.564 749.588 1656.95 1270.28 1892.5 1003.18C2078.15 792.667 1372.81 287.609 2731.81 129.109" stroke="#050505" stroke-width="6"></path> <path d="M28.3108 549.603C469.064 611.588 1334.64 946.637 1570.19 679.542C1755.85 469.024 1222.81 197.606 2713.81 6.10564" stroke="#050505" stroke-width="6"></path> <path d="M22.3108 623.604C463.064 685.589 1449.41 1079.56 1684.96 812.463C1870.61 601.945 1343.81 248.112 2713.81 62.1116" stroke="#050505" stroke-width="3"></path> </svg> 