<?xml version="1.0" encoding="UTF-8"?> <svg xmlns="http://www.w3.org/2000/svg" width="612" height="1275" viewBox="0 0 612 1275" fill="none"> <g clip-path="url(#clip0_849_2962)"> <path d="M-325.295 -592.713C-80.976 -391.554 -353.982 -105.415 -254.084 84.5314C-130.333 319.831 186.997 129.004 262.53 284.284C359.689 484.024 -358.001 1027.5 -74.9998 1291C-17.218 1344.8 -524.645 1370 -564.932 1360.61" stroke="#A69B91" stroke-width="6"></path> <path d="M-295.185 -624.302C-50.8662 -423.143 -317.389 -124.682 -223.973 52.9425C-100.225 288.243 211.045 101.722 292.64 252.695C428.851 504.723 -414.765 1066.18 61.0001 1354C126.183 1393.43 -331.008 1525.36 -371.295 1515.97" stroke="#A69B91" stroke-width="2"></path> <path d="M-265.878 -647.939C-21.5588 -446.779 -288.082 -148.319 -194.666 29.3059C-70.9179 264.607 246.414 73.7781 321.947 229.059C467.844 528.992 -361.907 1037.28 94.6351 1367.15C157.233 1412.38 -341.108 1628.94 -381.396 1619.55" stroke="#A69B91" stroke-width="2"></path> <path d="M-231.363 -673.109C12.9563 -471.949 -253.567 -173.489 -160.151 4.13612C-36.4028 239.437 287.745 44.3205 356.463 203.89C504.761 548.248 -419.631 1214 91.588 1451.23C159.554 1482.77 -379.345 1669.58 -419.633 1660.19" stroke="#A69B91" stroke-width="2"></path> <path d="M-194.676 -707.548C49.6429 -506.389 -216.88 -207.928 -123.465 -30.3031C0.283828 204.998 312.267 17.9455 393.149 169.45C574.907 509.908 -470.5 1355.36 175.664 1409.68C247.803 1415.74 -211.509 1566.84 -251.797 1557.45" stroke="#A69B91" stroke-width="2"></path> <path d="M-153.484 -737.917C90.8349 -536.758 -175.688 -238.297 -82.2725 -60.6727C41.4758 174.628 343.042 -3.98404 423.965 147.491C618.833 512.252 -418.001 1326.5 177.512 1496.23C248.19 1516.37 -432.711 1654.39 -472.999 1645" stroke="#A69B91" stroke-width="6"></path> </g> <defs> <clipPath id="clip0_849_2962"> <rect width="612" height="1275" fill="white"></rect> </clipPath> </defs> </svg> 