<?xml version="1.0" encoding="UTF-8"?> <svg xmlns="http://www.w3.org/2000/svg" width="1045" height="872" viewBox="0 0 1045 872" fill="none"> <path d="M21.2188 333.719C192.804 244.4 354.595 656.292 593.579 599.708C829.552 543.837 895.84 4.00846 879.491 4.54147" stroke="black" stroke-width="5"></path> <path d="M17.2657 358.719C188.851 269.4 350.642 681.292 589.625 624.708C825.599 568.837 891.886 29.0085 875.538 29.5415" stroke="black" stroke-width="2"></path> <path d="M13.2657 388.719C184.851 299.4 346.642 711.292 585.625 654.708C821.599 598.837 887.886 59.0085 871.538 59.5415" stroke="black" stroke-width="2"></path> <path d="M6.26568 415.717C177.851 326.398 339.642 738.29 578.625 681.706C814.599 625.835 880.886 86.0067 864.538 86.5398" stroke="black" stroke-width="2"></path> <path d="M1.26568 445.721C172.851 356.403 334.642 768.294 573.625 711.71C809.599 655.839 875.886 116.011 859.538 116.544" stroke="black" stroke-width="5"></path> </svg> 