<?xml version="1.0" encoding="UTF-8"?> <svg xmlns="http://www.w3.org/2000/svg" width="1409" height="1329" viewBox="0 0 1409 1329" fill="none"> <g clip-path="url(#clip0_911_2999)"> <path d="M1456.25 978.682C1093.98 896.732 1240.48 497.7 1037.91 360.778C786.965 191.164 545.002 518.85 385.939 404.125C181.333 256.553 758.085 -953.215 181.157 -1006.06C91.7013 -1014.26 676.569 -996.743 724.284 -1006.06" stroke="#8C6529" stroke-width="6"></path> <path d="M1440.11 1022.72C1077.84 940.771 1211.2 532.858 1021.76 404.817C770.822 235.201 533.145 555.994 369.794 448.164C97.1042 268.159 762.998 -952.928 110.071 -1012.74C20.6151 -1020.93 391.502 -1057.79 439.217 -1067.11" stroke="#8C6529" stroke-width="2"></path> <path d="M1420.8 1058.76C1058.53 976.808 1191.89 568.894 1002.46 440.854C751.516 271.237 509.552 598.925 350.488 484.201C43.2479 262.603 732.05 -922.236 74.5289 -1018.24C-15.1062 -1031.32 349.911 -1161.84 397.625 -1171.16" stroke="#8C6529" stroke-width="2"></path> <path d="M1396.72 1098.64C1034.44 1016.69 1167.8 608.773 978.372 480.732C727.43 311.115 480.364 646.024 326.4 524.078C-5.85981 260.915 697.072 -813.737 43.989 -1057.24C-43.4554 -1089.84 370.144 -1218.27 417.859 -1227.59" stroke="#8C6529" stroke-width="2"></path> <path d="M1375 1148.41C1012.73 1066.46 1146.09 658.545 956.657 530.504C705.715 360.888 467.547 682.515 304.687 573.851C-61.2884 329.664 672.073 -961.588 -14.3276 -1002.74C-103.552 -1008.09 243.086 -1043.22 290.801 -1052.54" stroke="#8C6529" stroke-width="2"></path> <path d="M1346.42 1196.32C984.153 1114.37 1117.51 706.458 928.08 578.417C677.138 408.801 445.812 717.582 282.924 608.965C-109.321 347.409 636.59 -861.211 -51.5346 -1031.74C-140.756 -1053.85 257.593 -1154.24 305.307 -1163.57" stroke="#8C6529" stroke-width="6"></path> </g> <defs> <clipPath id="clip0_911_2999"> <rect width="1329" height="1409" fill="white" transform="translate(1409) rotate(90)"></rect> </clipPath> </defs> </svg> 