<?xml version="1.0" encoding="UTF-8"?> <svg xmlns="http://www.w3.org/2000/svg" width="1235" height="1032" viewBox="0 0 1235 1032" fill="none"> <g clip-path="url(#clip0_1039_2941)"> <path d="M207.087 -91.935C235.07 388.554 650.644 260.155 755.115 417.753C884.53 612.979 534.498 928.904 622.499 1053" stroke="#937E61" stroke-width="6"></path> <path d="M166.032 -84.4744C217.009 408.508 620.265 280.273 717.96 427.646C847.377 622.871 504.393 933.043 586.5 1060" stroke="#937E61" stroke-width="2"></path> <path d="M117.492 -84.5022C175.967 415.98 589.594 292.906 687.289 440.279C816.706 635.504 463.997 943.903 551.998 1068" stroke="#937E61" stroke-width="2"></path> <path d="M71.4956 -74.0016C148.498 437 555.536 308.92 653.231 456.292C782.648 651.518 421 968.001 507.501 1065" stroke="#937E61" stroke-width="2"></path> <path d="M35.9989 -53.4993C140.498 470.064 513.398 322.692 611.093 470.064C740.51 665.29 389.682 937.868 472.501 1064.5" stroke="#937E61" stroke-width="2"></path> <path d="M2.99699 -22.998C114.998 489.032 472.492 341.66 570.187 489.032C699.604 684.258 370.5 924.502 431.999 1065" stroke="#937E61" stroke-width="6"></path> </g> <defs> <clipPath id="clip0_1039_2941"> <rect width="1235" height="1032" fill="white" transform="matrix(-1 0 0 1 1235 0)"></rect> </clipPath> </defs> </svg> 