<?xml version="1.0" encoding="UTF-8"?> <svg xmlns="http://www.w3.org/2000/svg" width="1795" height="1808" viewBox="0 0 1795 1808" fill="none"> <g clip-path="url(#clip0_1122_2885)"> <path d="M628.011 203.452C962.793 549.245 587.011 768.278 632.324 951.848C688.457 1179.25 1157.93 1135.38 1189.73 1284.15" stroke="#B0B0B0" stroke-width="6"></path> <path d="M661.289 178.274C989.707 549.451 622.382 759.526 664.753 931.188C720.884 1158.59 1181.35 1116.02 1219.25 1262.39" stroke="#B0B0B0" stroke-width="2"></path> <path d="M694.119 142.526C1022.98 524.299 652.438 745.502 694.81 917.163C750.94 1144.56 1216.69 1093.63 1248.48 1242.41" stroke="#B0B0B0" stroke-width="2"></path> <path d="M732.98 115.769C1057.05 518.301 687.278 731.265 729.65 902.927C785.78 1130.33 1263.53 1078.29 1276.39 1207.62" stroke="#B0B0B0" stroke-width="2"></path> <path d="M772.1 103.514C1086.81 534.789 725.938 709.565 768.31 881.227C824.44 1108.63 1262.54 1034.84 1299.71 1181.51" stroke="#B0B0B0" stroke-width="2"></path> <path d="M816.887 99.8621C1118.03 528.855 767.584 692.29 809.956 863.951C866.086 1091.35 1265.68 1011.67 1327.49 1152.04" stroke="#B0B0B0" stroke-width="6"></path> </g> <defs> <clipPath id="clip0_1122_2885"> <rect width="1388.8" height="1160.52" fill="white" transform="translate(0 1022.39) rotate(-47.4062)"></rect> </clipPath> </defs> </svg> 