<?xml version="1.0" encoding="UTF-8"?> <svg xmlns="http://www.w3.org/2000/svg" width="1561" height="1329" viewBox="0 0 1561 1329" fill="none"> <g clip-path="url(#clip0_911_2999)"> <path d="M1578.47 978.682C1192.13 896.732 1348.36 497.699 1132.33 360.778C864.707 191.164 606.665 518.85 437.032 404.125C218.83 256.553 833.908 -953.215 218.642 -1006.06C123.241 -1014.26 746.975 -996.743 797.86 -1006.06" stroke="#7399A1" stroke-width="6"></path> <path d="M1561.25 1022.72C1174.91 940.771 1317.13 532.858 1115.11 404.817C847.491 235.201 594.019 555.994 419.814 448.164C129.003 268.159 839.147 -952.928 142.831 -1012.74C47.431 -1020.93 442.964 -1057.79 493.85 -1067.11" stroke="#7399A1" stroke-width="2"></path> <path d="M1540.66 1058.76C1154.32 976.808 1296.54 568.894 1094.52 440.854C826.902 271.237 568.859 598.925 399.225 484.201C71.5678 262.603 806.142 -922.236 104.927 -1018.24C9.33584 -1031.32 398.609 -1161.84 449.494 -1171.16" stroke="#7399A1" stroke-width="2"></path> <path d="M1514.98 1098.64C1128.63 1016.69 1270.85 608.773 1068.83 480.732C801.215 311.115 537.732 646.024 373.537 524.078C19.197 260.915 768.841 -813.737 72.3583 -1057.24C-20.8969 -1089.84 420.187 -1218.27 471.073 -1227.59" stroke="#7399A1" stroke-width="2"></path> <path d="M1491.82 1148.41C1105.47 1066.46 1247.7 658.545 1045.68 530.504C778.058 360.888 524.063 682.515 350.381 573.851C-39.9149 329.664 742.18 -961.588 10.1666 -1002.74C-84.9868 -1008.09 284.686 -1043.22 335.572 -1052.54" stroke="#7399A1" stroke-width="2"></path> <path d="M1461.34 1196.32C1075 1114.37 1217.22 706.458 1015.2 578.417C747.581 408.801 500.883 717.582 327.171 608.965C-91.1396 347.409 704.339 -861.211 -29.5131 -1031.74C-124.663 -1053.85 300.156 -1154.24 351.042 -1163.57" stroke="#7399A1" stroke-width="6"></path> </g> <defs> <clipPath id="clip0_911_2999"> <rect width="1329" height="1561" fill="white" transform="translate(1561) rotate(90)"></rect> </clipPath> </defs> </svg> 