<?xml version="1.0" encoding="UTF-8"?> <svg xmlns="http://www.w3.org/2000/svg" width="2732" height="1130" viewBox="0 0 2732 1130" fill="none"> <g clip-path="url(#clip0_849_3014)"> <path d="M-9.99876 1051.5C-34.7675 1059.75 675.272 1136.61 932.328 1084.15C1316.41 1005.77 1251.16 714.537 1494.93 637.443C1767.03 551.386 1855.77 779.52 2095 702.499C2309.5 633.441 2769 71.4992 2769 71.4992" stroke="black" stroke-width="5"></path> <path d="M-184.698 966.254C-209.467 974.508 618.692 1075.51 875.748 1023.05C1259.83 944.67 1265.44 499.571 1473.43 446.921C1701.9 389.087 1819.33 690.753 2054 643C2282.58 596.485 2732 32.5 2732 32.5" stroke="black" stroke-width="2"></path> <path d="M-22.4984 1019C-22.4984 1019 642.783 1116.12 928.72 1048.08C1303.86 958.819 1292.1 589.156 1500.08 536.506C1728.55 478.672 1844.95 743.657 2087 672C2296.37 610.018 2756.5 44.9994 2756.5 44.9994" stroke="black" stroke-width="2"></path> <path d="M-53.553 953.785C-78.3218 962.039 612.081 1042.5 869.137 990.04C1253.22 911.657 1242.99 404.992 1452.68 338.675C1724.78 252.619 1804.58 651.103 2054 598.5C2267.14 553.55 2699.5 38.9993 2699.5 38.9993" stroke="black" stroke-width="2"></path> <path d="M1.38828 931.74C-23.3805 939.995 609.793 1003.21 866.849 950.749C1250.93 872.367 1197.27 290.116 1441.03 213.022C1713.14 126.966 1780.66 597.356 2046 559.5C2287.69 525.019 2679 11.9998 2679 11.9998" stroke="black" stroke-width="5"></path> </g> <defs> <clipPath id="clip0_849_3014"> <rect width="2732" height="1130" fill="white"></rect> </clipPath> </defs> </svg> 