<?xml version="1.0" encoding="UTF-8"?> <svg xmlns="http://www.w3.org/2000/svg" width="2416" height="2324" viewBox="0 0 2416 2324" fill="none"> <path d="M1844.76 1725.28C1517.7 1668.98 1776.01 1359.11 1671 1214.27C1520.09 1006.1 1205.2 1431.24 978.582 1214.26C754.816 1000.02 818.97 376.055 835.281 387.307" stroke="black" stroke-width="5"></path> <path d="M1829.25 1755.65C1490.93 1720.17 1711.26 1411.07 1629 1276.5C1508.02 1078.59 1181.5 1470.57 954.883 1253.6C731.116 1039.35 795.27 415.391 811.581 426.643" stroke="black" stroke-width="2"></path> <path d="M1807.99 1794.22C1469.67 1758.74 1676.26 1472.08 1594 1337.5C1473.02 1139.59 1160.24 1509.15 933.621 1292.17C709.854 1077.93 774.008 453.962 790.319 465.214" stroke="black" stroke-width="2"></path> <path d="M1785.22 1840.53C1446.89 1805.05 1641.76 1531.08 1559.5 1396.5C1438.52 1198.59 1137.47 1555.46 910.845 1338.48C687.079 1124.23 751.233 500.271 767.544 511.524" stroke="black" stroke-width="2"></path> <path d="M1790.04 1885.89C1403.95 1843.52 1611.26 1576.08 1529 1441.5C1408.02 1243.59 1115.61 1604.58 888.984 1387.6C665.217 1173.36 729.371 549.393 745.683 560.646" stroke="black" stroke-width="5"></path> </svg> 