<?xml version="1.0" encoding="UTF-8"?> <svg xmlns="http://www.w3.org/2000/svg" width="1100" height="1136" viewBox="0 0 1100 1136" fill="none"> <path d="M278.031 862.254C323.204 752.809 713.982 1228.12 686.5 868.521C668.521 633.284 995.388 771.355 992.857 650.544C991.002 561.972 828.15 621.976 803.606 559.681C770.004 474.397 995.576 431.093 937.611 340.566C871.791 237.774 659.881 365.058 621.651 307.739C583.421 250.421 587.987 98.7184 523.884 77.3272C441.505 49.8371 385.894 179.558 340.703 193.892L328.881 229.321" stroke="white" stroke-width="5"></path> <path d="M284.518 831.961C419.964 770.375 682.889 1176.7 659.054 846.731C641.55 604.411 965.843 744.355 963.916 652.16C962.891 603.107 804.832 630.188 779.281 568.897C735.446 463.746 964.511 430.518 913.42 350.728C855.408 260.128 621.644 396.354 587.948 345.834C554.253 295.314 567.392 129.726 510.892 110.871C438.284 86.6418 380.153 232.856 340.322 245.489L329.902 276.716" stroke="white" stroke-width="2"></path> </svg> 