<?xml version="1.0" encoding="UTF-8"?> <svg xmlns="http://www.w3.org/2000/svg" width="2859" height="1343" viewBox="0 0 2859 1343" fill="none"> <path d="M2836.16 753.216C2395.4 691.231 1472.25 349.377 1236.7 616.472C1051.04 826.99 1587.66 1090.71 148.157 1308.71" stroke="#607C99" stroke-width="3"></path> <path d="M2835.66 684.715C2394.91 622.73 1316.37 179.653 1080.83 446.748C895.172 657.266 1501.16 1065.21 137.155 1246.71" stroke="#607C99" stroke-width="3"></path> <path d="M2840.66 655.215C2399.91 593.23 1201.52 72.5385 965.973 339.634C780.319 550.152 1485.66 1055.21 126.662 1213.71" stroke="#607C99" stroke-width="6"></path> <path d="M2830.16 793.215C2389.41 731.23 1523.83 396.181 1288.28 663.277C1102.62 873.795 1635.66 1145.21 144.658 1336.71" stroke="#607C99" stroke-width="6"></path> <path d="M2836.16 719.215C2395.41 657.23 1409.06 263.26 1173.51 530.355C987.859 740.873 1514.66 1094.71 144.66 1280.71" stroke="#607C99" stroke-width="3"></path> </svg> 