<?xml version="1.0" encoding="UTF-8"?> <svg xmlns="http://www.w3.org/2000/svg" width="2732" height="1130" viewBox="0 0 2732 1130" fill="none"> <g clip-path="url(#clip0_849_3014)"> <path d="M-33.0687 986.556C-58.2152 993.576 647.157 1105.43 906.492 1065.75C1293.98 1006.45 1243.21 712.349 1490.48 647.4C1766.51 574.9 1843.87 807.142 2086.61 742.041C2304.26 683.671 2790.98 145.131 2790.98 145.131" stroke="black" stroke-width="3"></path> <path d="M-203.338 892.778C-228.485 899.797 593.668 1041.62 853.004 1001.93C1240.49 942.629 1268.1 498.352 1478.43 456.048C1709.48 409.579 1811.86 716.682 2048.6 680.587C2279.2 645.429 2755.95 104.351 2755.95 104.351" stroke="black"></path> <path d="M-43.946 953.478C-43.946 953.478 615.721 1083.37 904.672 1029.55C1283.77 958.938 1290.29 589.145 1500.63 546.841C1731.67 500.372 1834.83 770.787 2080.13 711.183C2292.3 659.627 2779.81 118.046 2779.81 118.046" stroke="black"></path> <path d="M-71.7375 886.807C-96.884 893.827 588.697 1008.32 848.032 968.63C1235.52 909.331 1250.35 402.779 1463.06 346.909C1739.09 274.409 1799.08 676.351 2050.8 636.142C2265.9 601.783 2723.17 109.235 2723.17 109.235" stroke="black"></path> <path d="M-15.7732 867.506C-40.9197 874.525 588.354 968.962 847.69 929.274C1235.18 869.975 1210.37 285.783 1457.64 220.834C1733.67 148.334 1777.85 621.487 2044.74 596.794C2287.84 574.303 2704.03 81.2554 2704.03 81.2554" stroke="black" stroke-width="3"></path> </g> <defs> <clipPath id="clip0_849_3014"> <rect width="2732" height="1130" fill="white"></rect> </clipPath> </defs> </svg> 