<?xml version="1.0" encoding="UTF-8"?> <svg xmlns="http://www.w3.org/2000/svg" width="1936" height="1822" viewBox="0 0 1936 1822" fill="none"> <g clip-path="url(#clip0_850_3165)"> <path d="M1997.5 1765.5C1471.5 1010 446.84 1080.78 505.49 635.797C575.973 101.04 1971.77 642.188 1942.5 152.501C1922.91 -175.234 2045.97 -286.113 2044 -253.5" stroke="#617C99" stroke-width="8"></path> <path d="M1891.5 1699.5C1412.5 1051 383.532 1091.24 446.268 615.254C521.662 43.239 1948.31 641.804 1917 117.999C1896.04 -232.568 1769.73 -414.119 1767.62 -379.234" stroke="#617C99" stroke-width="4"></path> <path d="M1830 1757.5C1536 1181 196.298 1091.39 264.618 573.043C346.722 -49.8817 1903.6 618.424 1869.5 47.9994C1846.68 -333.769 1751.74 -530.881 1749.44 -492.891" stroke="#617C99" stroke-width="4"></path> <path d="M1807 1784C1498 1212.5 98.8852 1077.95 168.581 549.17C252.338 -86.2979 1899.73 597.839 1847.5 22.5C1815.5 -330.002 1685.65 -576.981 1683.3 -538.227" stroke="#617C99" stroke-width="4"></path> <path d="M1847.5 1711C1472.5 1121 293.22 1096.01 359.142 595.86C438.364 -5.20099 1924.4 636.401 1891.5 85.9985C1869.48 -282.37 1796.52 -474.659 1794.3 -438.003" stroke="#617C99" stroke-width="4"></path> </g> <defs> <clipPath id="clip0_850_3165"> <rect width="1936" height="1822" fill="white"></rect> </clipPath> </defs> </svg> 