<?xml version="1.0" encoding="UTF-8"?> <svg xmlns="http://www.w3.org/2000/svg" width="2532" height="1245" viewBox="0 0 2532 1245" fill="none"> <g clip-path="url(#clip0_1196_2925)"> <path d="M146.998 393.999C667 1426 2028 792.916 2249.5 907.5C2452.57 1012.55 2036.07 1532.63 2315.5 1750.86C2527.52 1916.44 3465.64 1344.2 3674.82 1724.62C3884.01 2105.04 3832.8 3018.14 3832.8 3018.14" stroke="#AAB9C2" stroke-width="2"></path> <path d="M178.5 359.499C649.5 1365.5 2027 736 2287.5 864C2492.86 964.904 2080.71 1469.52 2350.19 1699.41C2553.65 1872.98 3491.46 1285.33 3700.64 1665.75C3909.83 2046.17 3906.82 3047.56 3906.82 3047.56" stroke="#AAB9C2" stroke-width="6"></path> <path d="M227.999 325.499C624 1322.5 2076 675.516 2334 810.5C2536.54 916.469 2120.15 1454.98 2416.58 1666.98C2632.17 1821.16 3472.07 1229.44 3681.25 1609.86C3890.44 1990.28 3881.42 3007.79 3881.42 3007.79" stroke="#AAB9C2" stroke-width="2"></path> <path d="M280.997 302.998C687 1302 2141.79 597.312 2380 766.5C2565.18 898.029 2177.73 1408.61 2456.39 1621.25C2666.76 1781.76 3440.23 1184.23 3649.41 1564.65C3858.6 1945.06 3846.32 2992.49 3846.32 2992.49" stroke="#AAB9C2" stroke-width="2"></path> <path d="M63.4999 406.999C529 1392 1572.5 1039 2165 1007.5C2390.94 995.488 1936.19 1608.66 2235.75 1837.24C2446.11 1997.75 3473.89 1447.71 3673.89 1841.88C3873.89 2236.05 3950.08 2977.64 3950.08 2977.64" stroke="#AAB9C2" stroke-width="2"></path> <path d="M22.5014 416C469.001 1379.5 1409 1123 2116 1048.5C2342.84 1024.6 1881.86 1634.16 2170.03 1866.04C2425.46 2071.58 3512.71 1438.42 3715.8 1963.7C3918.9 2488.97 4015.57 3035.34 4015.57 3035.34" stroke="#AAB9C2" stroke-width="6"></path> <path d="M326.999 270.999C701.5 1230.5 2185.29 556.313 2423.5 725.5C2608.68 857.029 2225.71 1338.37 2504.38 1551C2714.74 1711.51 3515.59 1121.03 3724.78 1501.45C3933.96 1881.86 3837.96 3021.25 3837.96 3021.25" stroke="#AAB9C2" stroke-width="2"></path> <path d="M358.222 216.038C732.723 1175.54 2216.52 501.351 2454.72 670.539C2639.91 802.068 2256.93 1283.41 2535.6 1496.04C2745.96 1656.55 3546.82 1066.07 3756 1446.49C3965.19 1826.9 3869.18 2966.29 3869.18 2966.29" stroke="#AAB9C2" stroke-width="6"></path> <path d="M100.996 400.5C579.5 1443 2006 889 2221 951C2441.75 1014.66 1978.3 1583.6 2286.09 1796.3C2504.32 1947.12 3447.8 1406.9 3656.99 1787.31C3866.17 2167.73 3906.48 3004.22 3906.48 3004.22" stroke="#AAB9C2" stroke-width="2"></path> </g> <defs> <clipPath id="clip0_1196_2925"> <rect width="2532" height="1245" fill="white"></rect> </clipPath> </defs> </svg> 