<?xml version="1.0" encoding="UTF-8"?> <svg xmlns="http://www.w3.org/2000/svg" width="2672" height="824" viewBox="0 0 2672 824" fill="none"> <g clip-path="url(#clip0_849_2996)"> <path d="M-27.0008 49.0009C1316.5 621 2018.2 12.773 2243.42 116.9C2541.76 254.837 2354.01 743.14 2550.09 825.358C2802.32 931.116 2959.71 494.458 3319.36 1055.4C3375.12 1142.38 3300.02 881.222 3283.52 824.925" stroke="#988979" stroke-width="6"></path> <path d="M-15.9991 119.002C1449.5 669 1990.04 59.7513 2215.25 163.878C2513.59 301.815 2325.84 790.118 2521.93 872.336C2774.15 978.094 2931.54 541.436 3291.19 1102.38C3346.96 1189.36 3271.85 928.2 3255.36 871.903" stroke="#988979" stroke-width="2"></path> <path d="M-14.9997 186.5C1528.5 716.5 1964.32 113.614 2189.53 217.74C2487.87 355.677 2300.13 843.98 2496.21 926.198C2748.44 1031.96 2905.83 595.298 3265.47 1156.25C3321.24 1243.22 3246.13 982.062 3229.64 925.766" stroke="#988979" stroke-width="2"></path> <path d="M-76.0011 220.999C1483.5 796 1933.29 179.879 2158.5 284.006C2456.84 421.943 2263.57 902.532 2459.65 984.75C2711.88 1090.51 2869.27 653.85 3228.92 1214.8C3284.68 1301.77 3209.58 1040.61 3193.08 984.317" stroke="#988979" stroke-width="2"></path> <path d="M-284.998 190.499C1418.5 909.5 1896.67 236.502 2121.88 340.629C2420.22 478.566 2232.47 966.869 2428.56 1049.09C2680.79 1154.85 2838.17 718.187 3197.82 1279.13C3253.59 1366.11 3178.48 1104.95 3161.99 1048.65" stroke="#988979" stroke-width="6"></path> </g> <defs> <clipPath id="clip0_849_2996"> <rect width="2672" height="824" fill="white"></rect> </clipPath> </defs> </svg> 