<?xml version="1.0" encoding="UTF-8"?> <svg xmlns="http://www.w3.org/2000/svg" width="4003" height="1667" viewBox="0 0 4003 1667" fill="none"> <g clip-path="url(#clip0_1122_2893)"> <path d="M389.5 -90.0001C783.5 536.5 1765.56 646.235 1902.48 828.624C2072.1 1054.56 1744.41 1272.41 1859.14 1415.62C2006.71 1599.84 3720.5 991.999 3935 1672.5" stroke="#B0B0B0" stroke-width="6"></path> <path d="M356.999 -60.9995C735 581.5 1730.4 672.603 1858.44 843.158C2028.06 1069.09 1707.27 1283.09 1815.1 1430.16C1995.1 1675.67 3597.5 1042 3877.5 1667.5" stroke="#B0B0B0" stroke-width="2"></path> <path d="M318 -35.4995C722 636.5 1694.37 689.984 1822.41 860.539C1992.02 1086.47 1664.34 1304.33 1779.06 1447.54C2000.66 1724.16 3542.5 1081 3809.5 1675" stroke="#B0B0B0" stroke-width="2"></path> <path d="M266.501 -35.9999C640 680.5 1654.49 711.672 1782.53 882.226C1952.14 1108.16 1617.24 1330.61 1739.18 1469.23C2002.35 1768.38 3508.5 1108 3752 1696" stroke="#B0B0B0" stroke-width="2"></path> <path d="M228 5.49999C529 687 1604.72 731.219 1732.76 901.774C1902.37 1127.71 1580.75 1342.14 1689.41 1488.77C1933.6 1818.28 3506 1122.5 3715 1740.5" stroke="#B0B0B0" stroke-width="2"></path> <path d="M201.998 29.5003C360.998 688.501 1556.8 756.949 1684.84 927.503C1854.46 1153.44 1545.68 1361.71 1654.3 1508.37C1915.85 1861.53 3497.47 1152.45 3668 1772" stroke="#B0B0B0" stroke-width="6"></path> </g> <defs> <clipPath id="clip0_1122_2893"> <rect width="4003" height="1667" fill="white" transform="matrix(-1 0 0 1 4003 0)"></rect> </clipPath> </defs> </svg> 