<?xml version="1.0" encoding="UTF-8"?> <svg xmlns="http://www.w3.org/2000/svg" width="4004" height="2410" viewBox="0 0 4004 2410" fill="none"> <g clip-path="url(#clip0_1220_2909)"> <path d="M3653.38 -1934.6L3895 408C3853.65 1101.73 2831.71 802.501 2653.5 1035.5C2513.44 1218.63 3119.4 1664.97 2872.26 1917.71C2489.14 2309.5 1232.76 1256 949.996 1688.5C667.227 2121 -647.504 2141.5 -647.504 2141.5" stroke="black" stroke-width="2"></path> <path d="M3622.19 -1964.99C3622.19 -1964.99 3899.85 -297.73 3858.5 396C3817.15 1089.73 2770.17 770.941 2590.01 1006.5C2449.94 1189.63 3038.49 1654 2830.64 1880.66C2486 2256.5 1219.14 1198 906.5 1654C593.86 2110 -795.502 2026 -795.502 2026" stroke="black" stroke-width="6"></path> <path d="M3595.38 -1963.47C3595.38 -1963.47 3877.85 -335.23 3836.5 358.5C3795.15 1052.23 2707.67 746.442 2527.51 982.002C2387.44 1165.13 2996.27 1664.63 2743.36 1873.56C2396 2160.5 1204.5 1148 888 1590C571.5 2032 -683.998 1958 -683.998 1958" stroke="black" stroke-width="2"></path> <path d="M3555.95 -1944.72C3555.95 -1944.72 3842.85 -361.23 3801.5 332.5C3760.16 1026.23 2644.67 716.441 2464.5 952.001C2324.44 1135.13 2920.59 1605.62 2695.65 1826.36C2383.67 2132.5 1206.5 1084 890.5 1510C574.5 1936 -644.998 1927 -644.998 1927" stroke="black" stroke-width="2"></path> <path d="M3721.67 -1872.92L3965.5 447C3924.16 1140.73 2932.88 855.779 2765.5 1073C2626.21 1253.78 3228.87 1648.06 2965.13 1963.39C2583.23 2419.99 1267.5 1405.5 999.501 1819C731.501 2232.5 -604.499 2325.5 -604.499 2325.5" stroke="black" stroke-width="2"></path> <path d="M3770.94 -1869.58L3990 481.501C3961.29 1154.72 2974.71 908.764 2824 1084.5C2673.51 1260 3281.47 1638.09 3038.21 1974.04C2651.44 2508.21 1231.17 1454.78 1050.5 1875.5C869.828 2296.22 -877.499 2452.5 -877.499 2452.5" stroke="black" stroke-width="6"></path> <path d="M3506 -1928.1C3506 -1928.1 3811.85 -379.73 3770.5 314C3729.15 1007.73 2582.17 688.941 2402 924.501C2261.94 1107.63 2886.8 1604.11 2628.71 1794.39C2277.08 2053.63 1178 982.5 840.004 1476.5C502.008 1970.5 -871.999 1759 -871.999 1759" stroke="black" stroke-width="2"></path> <path d="M3688.25 -1930.06L3926.5 425.001C3885.15 1118.73 2881.07 830.001 2710.51 1053C2570.44 1236.13 3182.26 1657.05 2917.94 1951.2C2551.5 2359 1260.96 1325 956.498 1770.5C652.036 2216 -1011.5 2286.5 -1011.5 2286.5" stroke="black" stroke-width="2"></path> <path d="M3453.29 -1946.52C3453.29 -1946.52 3771.35 -401.73 3730 292C3688.65 985.731 2519.77 652.858 2353.01 897.001C2200.01 1121 2819.04 1546.05 2578.92 1754.64C2313.69 1985.04 1106.26 936.851 818.003 1420.5C529.745 1904.15 -900.998 1677.5 -900.998 1677.5" stroke="black" stroke-width="6"></path> </g> <defs> <clipPath id="clip0_1220_2909"> <rect width="4004" height="2410" fill="white"></rect> </clipPath> </defs> </svg> 