<?xml version="1.0" encoding="UTF-8"?> <svg xmlns="http://www.w3.org/2000/svg" width="2759" height="2704" viewBox="0 0 2759 2704" fill="none"> <g clip-path="url(#clip0_1198_2981)"> <path d="M2588.58 -1870.34L2408.42 521.375C2367.68 1204.85 1812.01 879.922 1634.5 1112C1496.51 1292.42 2062.5 1676 1819.01 1925C1464.53 2287.5 190.839 1652.5 -30 2003C-250.839 2353.5 -1552.5 2416 -1552.5 2416" stroke="#AAB9C2" stroke-width="2"></path> <path d="M2557.84 -1900.29C2557.84 -1900.29 2419.31 -210.525 2378.57 472.946C2337.83 1156.42 1761 854.422 1583.5 1086.5C1445.5 1266.92 1969.65 1654.86 1778 1888.5C1497.87 2230 167 1587 -46.4999 1947.5C-260 2308 -1568.5 2367 -1568.5 2367" stroke="#AAB9C2" stroke-width="6"></path> <path d="M2531.44 -1898.79C2531.44 -1898.79 2384.97 -240.016 2344.23 443.454C2303.49 1126.93 1714.51 823.922 1537.01 1056C1399.01 1236.42 1941.18 1675.66 1692.01 1881.5C1370 2147.5 198.495 1529 -94.4999 1911C-387.495 2293 -1596.5 2318 -1596.5 2318" stroke="#AAB9C2" stroke-width="2"></path> <path d="M2492.59 -1880.31C2492.59 -1880.31 2355.46 -262.502 2314.72 420.969C2273.98 1104.44 1659.51 796.921 1482.01 1029C1344.01 1209.42 1866.63 1617.52 1645.01 1835C1363.5 2111.24 133.004 1466 -106 1862.5C-345.004 2259 -1587.5 2266.5 -1587.5 2266.5" stroke="#AAB9C2" stroke-width="2"></path> <path d="M2655.85 -1809.57L2466.94 592.283C2426.2 1275.75 1898.4 943.489 1733.5 1157.5C1596.27 1335.6 2170.34 1659.34 1910.51 1970C1534.25 2419.85 170.003 1732.5 -39.4999 2136C-249.003 2539.5 -1562 2512 -1562 2512" stroke="#AAB9C2" stroke-width="2"></path> <path d="M2704.4 -1806.28L2505.65 615.656C2477.37 1278.92 1936.98 1011.36 1788.5 1184.5C1640.23 1357.4 2222.16 1649.51 1982.5 1980.5C1601.45 2506.76 157.001 1767.5 -21 2182C-199.001 2596.5 -1560.5 2561 -1560.5 2561" stroke="#AAB9C2" stroke-width="6"></path> <path d="M2443.38 -1863.94C2443.38 -1863.94 2330.62 -290.418 2289.88 393.053C2249.14 1076.52 1611.56 779.925 1434.06 1012C1296.07 1192.42 1833.34 1616.03 1579.06 1803.5C1232.63 2058.91 171.507 1384.5 -171.5 1850.5C-514.507 2316.5 -1814 2058.5 -1814 2058.5" stroke="#AAB9C2" stroke-width="2"></path> <path d="M2622.93 -1865.87L2437.78 552.533C2397.04 1236 1855 906.921 1677.5 1139C1539.51 1319.42 2114.47 1660.34 1864.01 1958C1543.01 2339.49 134 1705 -21 2071.5C-176 2438 -1548 2463 -1548 2463" stroke="#AAB9C2" stroke-width="2"></path> <path d="M2391.45 -1882.09C2391.45 -1882.09 2295.36 -332.27 2254.63 351.201C2213.89 1034.67 1561.69 761.254 1384.19 993.33C1246.2 1173.75 1766.57 1558.83 1530.01 1764.34C1268.7 1991.33 77.5025 1352 -206.493 1828.5C-490.488 2304.99 -1957.5 1944.5 -1957.5 1944.5" stroke="#AAB9C2" stroke-width="6"></path> </g> <defs> <clipPath id="clip0_1198_2981"> <rect width="2759" height="2704" fill="white"></rect> </clipPath> </defs> </svg> 