<?xml version="1.0" encoding="UTF-8"?> <svg xmlns="http://www.w3.org/2000/svg" width="1827" height="1135" viewBox="0 0 1827 1135" fill="none"> <g clip-path="url(#clip0_911_2999)"> <path d="M1906.42 -138.032C1824.47 188.14 1425.44 56.2367 1288.52 238.625C1118.9 464.562 1446.59 682.412 1331.87 825.625C1184.29 1009.84 -25.4751 490.563 -78.324 1010C-86.5185 1090.54 -69.0024 563.957 -78.3243 520.997" stroke="#8C6529" stroke-width="6"></path> <path d="M1950.46 -123.498C1868.51 202.673 1460.6 82.6029 1332.56 253.158C1162.94 479.093 1483.73 693.085 1375.9 840.158C1195.9 1085.67 -25.1896 486.137 -85.0003 1074C-93.1948 1154.54 -130.047 820.613 -139.369 777.653" stroke="#8C6529" stroke-width="2"></path> <path d="M1986.49 -106.116C1904.54 220.055 1496.63 99.9854 1368.59 270.54C1198.97 496.476 1526.66 714.327 1411.94 857.54C1190.34 1134.16 5.49987 514.002 -90.5008 1106C-103.588 1186.7 -234.104 858.06 -243.426 815.1" stroke="#8C6529" stroke-width="2"></path> <path d="M2026.38 -84.4298C1944.43 241.741 1536.51 121.671 1408.47 292.226C1238.86 518.162 1573.76 740.607 1451.82 879.228C1188.66 1178.38 114.003 545.494 -129.499 1133.5C-162.102 1212.23 -290.532 839.843 -299.854 796.883" stroke="#8C6529" stroke-width="2"></path> <path d="M2076.15 -64.8799C1994.2 261.291 1586.28 141.221 1458.24 311.776C1288.63 537.712 1610.25 752.145 1501.59 898.776C1257.4 1228.28 -33.8507 568.001 -75.0009 1186C-80.35 1266.33 -115.482 954.238 -124.804 911.279" stroke="#8C6529" stroke-width="2"></path> <path d="M2124.06 -39.1517C2042.11 287.02 1634.19 166.95 1506.15 337.504C1336.54 563.44 1645.32 771.714 1536.7 918.37C1275.15 1271.53 66.5251 599.946 -104 1219.5C-126.11 1299.83 -226.508 941.176 -235.83 898.216" stroke="#8C6529" stroke-width="6"></path> </g> <defs> <clipPath id="clip0_911_2999"> <rect width="1827" height="1135" fill="white"></rect> </clipPath> </defs> </svg> 