<?xml version="1.0" encoding="UTF-8"?> <svg xmlns="http://www.w3.org/2000/svg" width="425" height="416" viewBox="0 0 425 416" fill="none"> <g clip-path="url(#clip0_905_2998)"> <path d="M324.201 198.875C268.994 198.875 224.247 154.464 224.247 99.6875C224.247 44.9114 268.994 0.499993 324.201 0.499996C379.408 0.499998 424.155 44.9114 424.155 99.6875C424.155 154.464 379.408 198.875 324.201 198.875Z" stroke="white"></path> <path d="M100.285 198.875C45.078 198.875 0.330529 154.464 0.330532 99.6875C0.330534 44.9114 45.078 0.499993 100.285 0.499996C155.492 0.499998 200.239 44.9114 200.239 99.6875C200.239 154.464 155.492 198.875 100.285 198.875Z" stroke="white"></path> <path d="M324.201 415.121C268.994 415.121 224.247 370.71 224.247 315.934C224.247 261.157 268.994 216.746 324.201 216.746C379.408 216.746 424.155 261.157 424.155 315.934C424.155 370.71 379.408 415.121 324.201 415.121Z" stroke="white"></path> <path d="M100.285 415.121C45.078 415.121 0.330529 370.71 0.330532 315.934C0.330534 261.157 45.078 216.746 100.285 216.746C155.492 216.746 200.239 261.157 200.239 315.934C200.239 370.71 155.492 415.121 100.285 415.121Z" stroke="white"></path> </g> <defs> <clipPath id="clip0_905_2998"> <rect width="425" height="416" fill="white"></rect> </clipPath> </defs> </svg> 